<?xml version="1.0" encoding="iso-8859-1"?>
<!-- Generator: Adobe Illustrator 19.0.0, SVG Export Plug-In . SVG Version: 6.00 Build 0)  -->
<svg version="1.1" id="Capa_1" xmlns="http://www.w3.org/2000/svg" xmlns:xlink="http://www.w3.org/1999/xlink" x="0px" y="0px"
	 viewBox="0 0 512 512" style="enable-background:new 0 0 512 512;" xml:space="preserve">
<g>
	<path style="fill:#4D4D4D;" d="M13.16,498.841c17.546,17.546,46.096,17.547,63.643,0l10.607-10.607l-38.893-67.178L13.16,498.841z"
		/>
	<polygon style="fill:#4D4D4D;" points="200.37,311.631 110.216,373.5 177.393,398.25 232.191,343.451 	"/>
</g>
<g>
	<path style="fill:#737373;" d="M23.767,424.592L13.16,435.198c-17.547,17.547-17.546,46.096,0,63.643l42.429-42.429L23.767,424.592
		z"/>
	
		<rect x="134.558" y="284.366" transform="matrix(-0.7071 -0.7071 0.7071 -0.7071 39.6419 662.6443)" style="fill:#737373;" width="45.001" height="77.492"/>
</g>
<polygon points="55.588,456.412 87.41,488.233 177.393,398.25 145.572,366.428 86.438,397.278 "/>
<rect x="62.169" y="331.883" transform="matrix(-0.7071 -0.7071 0.7071 -0.7071 -135.1284 735.0482)" style="fill:#272727;" width="45.001" height="127.254"/>
<path style="fill:#737373;" d="M454.591,57.41L287.707,167.723L177.393,334.607c76.546,76.546,200.651,76.546,277.197,0
	S531.137,133.956,454.591,57.41z"/>
<path style="fill:#969696;" d="M177.393,57.41c-76.546,76.546-76.546,200.651,0,277.197L454.591,57.41
	C378.045-19.137,253.94-19.137,177.393,57.41z"/>
<path style="fill:#ABECEC;" d="M418.527,93.474l-130.82,74.249l-74.249,130.82c56.628,56.628,148.441,56.628,205.069,0
	C475.156,241.914,475.156,150.102,418.527,93.474z"/>
<g>
	<path style="fill:#D5F6F5;" d="M213.458,93.474c-56.628,56.628-56.628,148.441,0,205.069L418.527,93.474
		C361.899,36.846,270.086,36.846,213.458,93.474z"/>
	<path style="fill:#D5F6F5;" d="M397.312,114.688l-109.606,53.035L234.671,277.33c44.912,44.912,117.729,44.912,162.642,0
		C442.225,232.417,442.225,159.6,397.312,114.688z"/>
</g>
<path style="fill:#FFFFFF;" d="M234.672,114.688c-44.912,44.912-44.912,117.729,0,162.642l162.642-162.642
	C352.401,69.775,279.584,69.775,234.672,114.688z"/>
<g>
</g>
<g>
</g>
<g>
</g>
<g>
</g>
<g>
</g>
<g>
</g>
<g>
</g>
<g>
</g>
<g>
</g>
<g>
</g>
<g>
</g>
<g>
</g>
<g>
</g>
<g>
</g>
<g>
</g>
</svg>
